Coordinates
version=1
nRows=14
nColumns=63
inDegrees=yes

Units are S.I. units (second, meters, Newtons, ...)
If the header above contains a line with 'inDegrees', this indicates whether rotational values are in degrees (yes) or radians (no).

endheader
time	pelvis_tilt	pelvis_list	pelvis_rotation	pelvis_tx	pelvis_ty	pelvis_tz	hip_flexion_r	hip_adduction_r	hip_rotation_r	knee_angle_r	knee_angle_r_beta	ankle_angle_r	subtalar_angle_r	mtp_angle_r	hip_flexion_l	hip_adduction_l	hip_rotation_l	knee_angle_l	knee_angle_l_beta	ankle_angle_l	subtalar_angle_l	mtp_angle_l	L5_S1_Flex_Ext	L5_S1_Lat_Bending	L5_S1_axial_rotation	L4_L5_Flex_Ext	L4_L5_Lat_Bending	L4_L5_axial_rotation	L3_L4_Flex_Ext	L3_L4_Lat_Bending	L3_L4_axial_rotation	L2_L3_Flex_Ext	L2_L3_Lat_Bending	L2_L3_axial_rotation	L1_L2_Flex_Ext	L1_L2_Lat_Bending	L1_L2_axial_rotation	L1_T12_Flex_Ext	L1_T12_Lat_Bending	L1_T12_axial_rotation	Abs_r3	Abs_r2	Abs_r1	Abs_t1	Abs_t2	neck_flexion	neck_bending	neck_rotation	arm_flex_r	arm_add_r	arm_rot_r	elbow_flex_r	pro_sup_r	wrist_flex_r	wrist_dev_r	arm_flex_l	arm_add_l	arm_rot_l	elbow_flex_l	pro_sup_l	wrist_flex_l	wrist_dev_l
2.966667	3.372262	-0.863256	94.084166	0.125908	0.633965	0.780437	7.226990	0.794166	-8.048894	14.312003	0.249792	35.216457	1.824101	0.000000	6.384337	-2.234911	-10.981359	11.584512	0.202188	37.124974	17.403343	0.000000	0.143263	0.389261	-0.790355	0.266054	0.517716	-0.839752	0.235367	0.946448	-0.839752	0.163735	0.946448	-0.691561	0.133034	0.793780	-0.642164	0.081861	0.602965	-0.592766	1.023314	4.403393	-4.395719	0.000000	0.000000	21.763055	6.170159	19.040508	15.147622	-12.612810	69.657956	48.507258	28.304856	-2.988570	14.237781	11.642261	-7.222175	52.928466	46.881848	85.756772	5.273702	9.695236
2.983333	3.412929	-0.934366	94.064349	0.125960	0.633743	0.780988	7.414578	0.842356	-7.875272	14.419413	0.251666	35.094524	1.453160	0.000000	6.544809	-2.288625	-10.946075	11.695707	0.204129	37.208117	17.358924	0.000000	0.141460	0.394261	-0.783171	0.262705	0.524367	-0.832119	0.232405	0.958606	-0.832119	0.161675	0.958606	-0.685275	0.131360	0.803977	-0.636327	0.080830	0.610710	-0.587378	1.010435	4.459960	-4.355764	0.000000	0.000000	21.958817	5.952941	18.651772	15.046129	-12.845874	69.089736	49.051225	27.784371	-3.104454	14.355916	11.815162	-7.171658	52.890470	47.012919	85.837781	5.062325	9.400367
3.000000	3.460298	-1.012588	94.024025	0.126090	0.633553	0.781473	7.591107	0.908173	-7.654968	14.510180	0.253250	34.938441	1.052644	0.000000	6.697853	-2.354089	-10.915139	11.792443	0.205817	37.277363	17.305542	0.000000	0.141714	0.398445	-0.768499	0.263177	0.529931	-0.816530	0.232822	0.968778	-0.816530	0.161965	0.968778	-0.672436	0.131596	0.812508	-0.624405	0.080975	0.617191	-0.576374	1.012248	4.507285	-4.274159	0.000000	0.000000	22.189473	5.634833	17.945094	14.997553	-13.038837	68.471845	49.589545	27.006175	-3.341851	14.591236	12.020184	-7.129328	52.719879	47.125100	85.794933	4.954095	9.180951
3.016667	3.511410	-1.094461	93.941907	0.126305	0.633398	0.781827	7.742161	0.990294	-7.377107	14.565385	0.254214	34.764805	0.652931	0.000000	6.822364	-2.425465	-10.914687	11.852624	0.206867	37.338256	17.238085	0.000000	0.145344	0.402112	-0.746889	0.269919	0.534809	-0.793569	0.238786	0.977694	-0.793569	0.166114	0.977694	-0.653528	0.134967	0.819986	-0.606847	0.083050	0.622871	-0.560167	1.038180	4.548768	-4.153972	0.000000	0.000000	22.411832	5.183573	16.952380	14.982858	-13.158705	67.751818	50.063041	26.506842	-3.570413	14.997809	12.188779	-7.093541	52.448168	47.174663	85.715221	4.670455	8.907897
3.033333	3.578106	-1.176390	93.832932	0.126617	0.633282	0.782100	7.873178	1.111452	-6.977577	14.585833	0.254571	34.562124	0.157156	0.000000	6.927912	-2.519343	-10.935436	11.888955	0.207501	37.387711	17.174271	0.000000	0.150977	0.406616	-0.724293	0.280380	0.540800	-0.769562	0.248040	0.988647	-0.769562	0.172552	0.988647	-0.633757	0.140197	0.829172	-0.588488	0.086268	0.629849	-0.543220	1.078415	4.599727	-4.028302	0.000000	0.000000	22.635289	4.671291	15.797561	15.089538	-13.212685	67.182925	50.458876	25.648067	-3.883978	15.414038	12.307792	-7.067994	52.040158	47.135628	85.804099	4.383570	8.541578
3.050000	3.656483	-1.248365	93.671705	0.127039	0.633227	0.782275	7.971790	1.262403	-6.494889	14.565942	0.254224	34.354676	-0.338084	0.000000	6.991852	-2.629469	-10.996994	11.886087	0.207451	37.423675	17.099551	0.000000	0.157447	0.412215	-0.695513	0.292395	0.548246	-0.738982	0.258670	1.002259	-0.738982	0.179946	1.002259	-0.608573	0.146206	0.840588	-0.565104	0.089965	0.638521	-0.521634	1.124630	4.663057	-3.868232	0.000000	0.000000	22.821986	4.093560	14.536478	15.312572	-13.192777	66.732626	50.761669	24.913781	-4.203782	15.904605	12.401617	-7.061610	51.603523	47.015756	85.976401	4.039806	8.150001
3.066667	3.748052	-1.307464	93.459020	0.127585	0.633254	0.782395	8.043888	1.450005	-5.895863	14.513094	0.253301	34.135909	-0.881502	0.000000	7.017257	-2.759933	-11.118487	11.850679	0.206833	37.445881	17.032492	0.000000	0.162957	0.419522	-0.665318	0.302627	0.557964	-0.706900	0.267721	1.020025	-0.706900	0.186243	1.020025	-0.582153	0.151322	0.855489	-0.540571	0.093113	0.649839	-0.498988	1.163983	4.745715	-3.700298	0.000000	0.000000	22.979344	3.516256	13.309479	15.717406	-13.088973	66.579483	50.928450	24.376968	-4.432755	16.317597	12.468430	-7.081302	51.153626	46.826214	86.213983	3.553323	7.644279
3.083333	3.858894	-1.358302	93.196102	0.128231	0.633379	0.782450	8.098447	1.669516	-5.263761	14.438464	0.251999	33.929622	-1.361088	0.000000	7.007778	-2.915559	-11.308084	11.781219	0.205621	37.450452	16.985728	0.000000	0.168447	0.429940	-0.633595	0.312824	0.571820	-0.673195	0.276742	1.045355	-0.673195	0.192518	1.045355	-0.554396	0.156420	0.876733	-0.514796	0.096251	0.665977	-0.475196	1.203202	4.863564	-3.523867	0.000000	0.000000	23.089647	2.950693	12.202215	16.308555	-12.915113	66.763132	50.964543	24.218916	-4.532711	16.646530	12.515416	-7.113742	50.704268	46.584370	86.478369	2.916422	7.072525
3.100000	3.976021	-1.384266	92.937389	0.128914	0.633633	0.782435	8.110767	1.886913	-4.767178	14.338918	0.250261	33.775661	-1.617237	0.000000	6.953015	-3.075254	-11.480731	11.675748	0.203780	37.421891	16.919335	0.000000	0.172021	0.440718	-0.602050	0.319460	0.586154	-0.639678	0.282613	1.071561	-0.639678	0.196603	1.071561	-0.526794	0.159739	0.898711	-0.489166	0.098293	0.682672	-0.451537	1.228729	4.985486	-3.348421	0.000000	0.000000	23.157849	2.393058	11.139655	17.020324	-12.673249	67.146623	50.869980	24.587779	-4.488775	16.888960	12.610358	-7.169806	50.445212	46.291272	86.754978	2.000193	6.403969
3.116667	4.097393	-1.390447	92.633245	0.129712	0.634013	0.782341	8.093552	2.115493	-4.294097	14.226575	0.248301	33.660622	-1.747456	0.000000	6.847520	-3.244768	-11.730462	11.533254	0.201293	37.364865	16.876288	0.000000	0.173917	0.452145	-0.562927	0.322982	0.601353	-0.598110	0.285729	1.099345	-0.598110	0.198770	1.099345	-0.492561	0.161500	0.922014	-0.457378	0.099376	0.700372	-0.422195	1.242275	5.114753	-3.130831	0.000000	0.000000	23.172972	1.917423	10.289315	17.822082	-12.361003	67.704030	50.646371	25.491885	-4.322298	17.016217	12.713802	-7.238250	50.218218	45.987848	87.021858	1.025581	5.749291
3.133333	4.231300	-1.390212	92.316933	0.130593	0.634502	0.782152	8.053223	2.358286	-3.896820	14.094654	0.245998	33.583121	-1.725106	0.000000	6.707397	-3.428045	-12.007815	11.351833	0.198127	37.274890	16.836967	0.000000	0.177355	0.465013	-0.516844	0.329366	0.618467	-0.549147	0.291377	1.130632	-0.549147	0.202699	1.130632	-0.452239	0.164692	0.948254	-0.419936	0.101341	0.720305	-0.387633	1.266831	5.260317	-2.874532	0.000000	0.000000	23.120923	1.554670	9.713883	18.612992	-11.993480	68.275101	50.319493	26.790155	-4.085257	17.010241	12.852894	-7.301764	50.070856	45.649463	87.298822	0.115033	5.150986
3.150000	4.362682	-1.364514	91.988034	0.131506	0.635099	0.781860	7.976737	2.596806	-3.556125	13.958738	0.243626	33.536293	-1.588210	0.000000	6.521600	-3.610913	-12.339143	11.157482	0.194735	37.159253	16.823206	0.000000	0.179163	0.478037	-0.465383	0.332723	0.635789	-0.494470	0.294346	1.162299	-0.494470	0.204765	1.162299	-0.407210	0.166370	0.974813	-0.378124	0.102374	0.740480	-0.349037	1.279741	5.407652	-2.588322	0.000000	0.000000	22.998713	1.309034	9.422767	19.375159	-11.593056	68.862541	49.910209	28.450519	-3.723884	16.869097	12.992118	-7.369201	49.985236	45.323840	87.578631	-0.883168	4.561655
3.166667	4.496748	-1.321271	91.663299	0.132433	0.635777	0.781508	7.877979	2.829802	-3.317292	13.827037	0.241327	33.518332	-1.301979	0.000000	6.301016	-3.798108	-12.708037	10.943556	0.191001	37.019481	16.847071	0.000000	0.179546	0.492334	-0.411892	0.333435	0.654804	-0.437635	0.294976	1.197061	-0.437635	0.205203	1.197061	-0.360406	0.166726	1.003968	-0.334662	0.102593	0.762625	-0.308919	1.282479	5.569382	-2.290820	0.000000	0.000000	22.808036	1.211275	9.520584	20.058694	-11.162147	69.407662	49.408626	30.478936	-3.288841	16.540821	13.158064	-7.437316	49.997609	44.993911	87.773970	-1.789016	4.086050
3.183333	4.642185	-1.284133	91.350808	0.133346	0.636480	0.781094	7.785323	3.077405	-3.070518	13.698162	0.239078	33.483797	-1.056413	0.000000	6.077986	-3.990983	-13.060373	10.715637	0.187023	36.871911	16.854659	0.000000	0.181889	0.508151	-0.352976	0.337787	0.675840	-0.375037	0.298826	1.235517	-0.375037	0.207881	1.235517	-0.308854	0.168902	1.036221	-0.286793	0.103932	0.787125	-0.264732	1.299217	5.748301	-1.963144	0.000000	0.000000	22.583517	1.240895	9.896597	20.559791	-10.725141	69.769841	48.886813	32.176615	-2.949107	16.166214	13.329732	-7.482611	50.078943	44.639729	87.985485	-2.503360	3.706117
